# xmcd
#
# Track frame offsets: 
#        212
#        20832
#        37875
#        59330
#        81080
#        98230
#        117595
#        135255
#        157932
#        176240
#
# Disc length: 2617 seconds
#
# Revision: 0
# Processed by: cddbd v1.5.2PL0 Copyright (c) Steve Scherf et al.
# Submitted via: ExactAudioCopy v1.0b1
#
DISCID=7d0a370a
DTITLE=Snoman - The Exceptional One
DYEAR=1993
DGENRE=Rap
TTITLE0=You Gotta Slave
TTITLE1=I You're Happy And You Know It
TTITLE2=Money
TTITLE3=Take A Hit Catch A Buzz
TTITLE4=Sno's Drinking Milk
TTITLE5=Disneyland
TTITLE6=Follow For Now
TTITLE7=I'll Make You Moan
TTITLE8=Love For The Last Time
TTITLE9=Love Thang
EXTD=
EXTT0=
EXTT1=
EXTT2=
EXTT3=
EXTT4=
EXTT5=
EXTT6=
EXTT7=
EXTT8=
EXTT9=
PLAYORDER=
